<?xml version="1.0" encoding="utf-8"?>
<!-- Generator: Adobe Illustrator 25.4.1, SVG Export Plug-In . SVG Version: 6.00 Build 0)  -->
<svg version="1.1" id="f7e03166-69b6-44db-bc6e-9b861c610d5e"
	 xmlns="http://www.w3.org/2000/svg" xmlns:xlink="http://www.w3.org/1999/xlink" x="0px" y="0px" viewBox="0 0 37.2 37.2"
	 style="enable-background:new 0 0 37.2 37.2;" xml:space="preserve">
<style type="text/css">
	.st0{fill:#EA5435;}
	.st1{enable-background:new    ;}
	.st2{fill:#FFFFFF;}
</style>
<circle class="st0" cx="18.6" cy="18.6" r="18.6"/>
<g class="st1">
	<path class="st2" d="M9.1,17.6c-0.2-0.1-0.5-0.2-0.8-0.3s-0.6-0.1-1-0.1c-0.5,0-1,0.1-1.4,0.3S5.2,18,5,18.5s-0.3,0.9-0.3,1.4
		c0,0.5,0.2,0.9,0.5,1.2s0.8,0.4,1.4,0.4c0.3,0,0.6,0,0.9-0.1s0.6-0.2,1-0.4l-0.5,2.3c-0.6,0.2-1.3,0.3-2,0.3c-1.2,0-2.2-0.3-2.9-1
		S2,21.2,2,20c0-1,0.2-1.9,0.7-2.7s1.1-1.4,1.9-1.8S6.3,15,7.4,15c0.4,0,0.7,0,1.1,0.1s0.7,0.1,1,0.2L9.1,17.6z"/>
	<path class="st2" d="M15.7,17.5c-0.4-0.2-0.8-0.4-1.1-0.5s-0.7-0.1-1-0.1c-0.3,0-0.5,0.1-0.6,0.2s-0.2,0.3-0.2,0.4
		c0,0.2,0.1,0.3,0.2,0.4s0.4,0.3,0.8,0.5c0.7,0.4,1.1,0.7,1.4,1.1s0.4,0.8,0.4,1.4c0,0.5-0.2,1-0.5,1.5s-0.7,0.7-1.3,0.9
		s-1.2,0.3-1.9,0.3c-0.5,0-1-0.1-1.5-0.2S9.5,23.2,9.2,23l0.4-2.1c0.7,0.6,1.5,0.8,2.3,0.8c0.6,0,0.9-0.2,0.9-0.7
		c0-0.2-0.1-0.4-0.2-0.5s-0.4-0.3-0.8-0.5c-0.6-0.3-1.1-0.6-1.4-1S10,18.3,10,17.8c0-0.5,0.1-1,0.4-1.5c0.3-0.4,0.7-0.8,1.2-1
		s1.1-0.3,1.8-0.3c0.5,0,1,0,1.5,0.1s0.8,0.2,1.2,0.3L15.7,17.5z"/>
	<path class="st2" d="M25,18.5c0,1-0.2,1.9-0.6,2.6s-1,1.4-1.8,1.7S21,23.5,20,23.5h-3.9l1.8-8.4h3.3c1.3,0,2.2,0.3,2.9,0.9
		C24.7,16.6,25,17.4,25,18.5z M22.3,18.7c0-0.5-0.1-0.9-0.4-1.2s-0.7-0.4-1.3-0.4H20L19,21.5h0.8c0.8,0,1.4-0.3,1.8-0.8
		S22.3,19.6,22.3,18.7z"/>
	<path class="st2" d="M33.6,23.5h-2l-2.4-4.1c-0.2-0.4-0.4-0.7-0.4-0.9h0c-0.1,0.5-0.2,0.9-0.3,1.4l-0.8,3.6h-2.3l1.8-8.4h2.2
		l2.3,3.9c0.1,0.1,0.1,0.2,0.2,0.4s0.1,0.3,0.2,0.4h0c0-0.1,0-0.3,0.1-0.5l0.9-4.2h2.3L33.6,23.5z"/>
</g>
</svg>
