<svg xmlns="http://www.w3.org/2000/svg" viewBox="0 0 24.19 24.07"><defs><style>.a{fill:#fff;}</style></defs><path class="a" d="M12,.05A12.15,12.15,0,0,0,0,12.35H0a12.28,12.28,0,0,0,8.2,11.7c.6.11.82-.27.82-.59V21.37c-3.34.74-4-1.66-4-1.66a3.22,3.22,0,0,0-1.33-1.8c-1.09-.76.08-.74.08-.74a2.48,2.48,0,0,1,1.84,1.26,2.53,2.53,0,0,0,3.42,1h.08a2.64,2.64,0,0,1,.76-1.65C7.2,17.47,4.4,16.42,4.4,11.7A4.81,4.81,0,0,1,5.63,8.4a4.53,4.53,0,0,1,.11-3.26s1-.33,3.3,1.26a11.12,11.12,0,0,1,6,0c2.28-1.59,3.28-1.26,3.28-1.26a4.69,4.69,0,0,1,.13,3.26,4.84,4.84,0,0,1,1.22,3.3c0,4.73-2.8,5.77-5.47,6.07a3,3,0,0,1,.8,2.28v3.37c0,.37.21.71.83.58A12.33,12.33,0,0,0,12,0" transform="translate(0)"/></svg>