<?xml version="1.0" encoding="utf-8"?>
<!-- Generator: Adobe Illustrator 25.4.1, SVG Export Plug-In . SVG Version: 6.00 Build 0)  -->
<svg version="1.1" id="图层_1" xmlns="http://www.w3.org/2000/svg" xmlns:xlink="http://www.w3.org/1999/xlink" x="0px" y="0px"
	 viewBox="0 0 32 32" style="enable-background:new 0 0 32 32;" xml:space="preserve">
<style type="text/css">
	.st0{fill:#FFFFFF;}
</style>
<path class="st0" d="M30.3,8.4c0-0.1,0-0.2,0-0.3V7.9L29.8,8l0.5-0.1V7.8c-0.1-0.2-0.2-0.5-0.3-0.7c-0.1-0.2-0.2-0.4-0.4-0.6
	c-0.7-1.1-1.9-1.7-3.2-1.7H5.5C4.2,4.8,3,5.4,2.3,6.5C2.2,6.7,2,6.9,2,7.2C1.9,7.4,1.8,7.7,1.7,7.9L2.2,8H1.7c0,0.1,0,0.2,0,0.4v16
	c0,2.1,1.7,3.9,3.9,3.9h20.9c2.1,0,3.9-1.7,3.9-3.9L30.3,8.4L30.3,8.4z M27.6,9.5v14c0,1.1-0.9,2-2,2H6.4c-1.1,0-2-0.9-2-2v-14
	c0-0.2,0-0.3,0.1-0.5l10.5,8.4l0.1,0.1c0.2,0.2,0.5,0.3,0.8,0.4H16c0.4,0,0.7-0.1,1-0.4L27.5,9C27.6,9.2,27.6,9.3,27.6,9.5z
	 M16,14.8L6.9,7.5h18.2L16,14.8z"/>
</svg>
