<?xml version="1.0" standalone="no"?><!DOCTYPE svg PUBLIC "-//W3C//DTD SVG 1.1//EN" "http://www.w3.org/Graphics/SVG/1.1/DTD/svg11.dtd"><svg t="1690478353779" class="icon" viewBox="0 0 1024 1024" version="1.1" xmlns="http://www.w3.org/2000/svg" p-id="3279" xmlns:xlink="http://www.w3.org/1999/xlink" width="32" height="32"><path d="M0 0h1024v1024H0z" fill="#333333" opacity=".01" p-id="3280"></path><path d="M118.9888 668.672l5.4272 2.3552 392.8064 199.168 382.3616-193.8944a50.2784 50.2784 0 0 1 67.84 22.9376 51.712 51.712 0 0 1-17.4592 65.8432l-5.12 3.0208-382.4128 193.8432c-25.6 13.0048-55.296 14.336-81.8176 3.9424l-8.704-3.9424-392.704-199.168a51.6608 51.6608 0 0 1-22.6304-68.8128 50.3296 50.3296 0 0 1 62.464-25.2928z m0-204.8l5.4272 2.3552 392.8064 199.168 382.3616-193.8944a50.2784 50.2784 0 0 1 67.84 22.9376 51.712 51.712 0 0 1-17.4592 65.8432l-5.12 3.0208-382.4128 193.8432c-25.6 13.0048-55.296 14.336-81.8176 3.9424l-8.704-3.9424-392.704-199.168a51.6608 51.6608 0 0 1-22.6304-68.8128 50.3296 50.3296 0 0 1 62.464-25.2928z m416.512-407.1424l408.2176 203.5712a52.3776 52.3776 0 0 1 0 93.7984l-408.2176 203.5712a52.736 52.736 0 0 1-47.0016 0L80.2816 354.0992a52.3776 52.3776 0 0 1 0-93.7984L488.448 56.7296c14.7968-7.3728 32.256-7.3728 47.0016 0zM512 162.304L221.3376 307.2 512 452.096 802.6112 307.2 512 162.304z" fill="#fff" p-id="3281"></path></svg>