<?xml version="1.0" encoding="utf-8"?>
<!-- Generator: Adobe Illustrator 25.4.1, SVG Export Plug-In . SVG Version: 6.00 Build 0)  -->
<svg version="1.1" id="图层_1" xmlns="http://www.w3.org/2000/svg" xmlns:xlink="http://www.w3.org/1999/xlink" x="0px" y="0px"
	 viewBox="0 0 32 32" style="enable-background:new 0 0 32 32;" xml:space="preserve">
<style type="text/css">
	.st0{fill:#FFFFFF;}
</style>
<path class="st0" d="M16,0C7.1,0,0,7.1,0,16s7.1,16,16,16s16-7.1,16-16S24.9,0,16,0z M26.8,9.6c-0.2,0.2-0.2,0.3-0.3,0.3
	c-0.3,0.3-0.7,0.5-1,0.7c-0.2,0-0.2,0.2-0.2,0.3c0.2,1.9-0.2,3.8-0.9,5.7c-1.2,3.3-3.8,5.9-6.9,7.4c-2.6,1.6-5.7,2.1-8.5,1.4
	c-1.4-0.2-2.6-0.7-3.6-1.4L5.2,24c0-0.2,0.2-0.3,0.3-0.3c0.9,0,1.7-0.2,2.6-0.5c0.9-0.3,1.7-0.9,2.4-1.4l0.2-0.2
	c0-0.2,0-0.3-0.2-0.3c-0.7-0.2-1.2-0.5-1.7-0.9c-0.7-0.3-1.2-1-1.6-1.7v-0.2c0-0.2,0.2-0.3,0.3-0.3h0.5c0.2,0,0.2,0,0.2-0.2
	c0.2-0.2,0-0.3-0.2-0.5c-0.7-0.3-1.2-0.9-1.7-1.4c-0.7-0.7-1-1.6-1-2.4v-0.2c0-0.2,0.3-0.2,0.3-0.2c0.2,0,0.3,0.2,0.5,0.2h0.3
	c0.2,0,0.2,0,0.3-0.2c0.2-0.2,0.2-0.3,0-0.5c-0.7-0.7-1.2-1.6-1.4-2.6c-0.2-0.9,0-1.9,0.3-2.8V7.2c-0.3,0.2-0.2,0.2,0,0.3
	c1.2,1.2,2.4,2.3,4,3.1c1.7,0.9,3.6,1.4,5.5,1.4c0.2,0,0.3-0.2,0.3-0.3c0-1,0.3-4.5,3.5-5.4c1.6-0.5,3.5-0.2,4.7,1.2
	c0,0,0.2,0.2,0.3,0.2c0.3,0,0.7-0.2,1.2-0.2c0.3-0.2,0.7-0.2,1-0.3h0.3C27,7.2,27,7.5,27,7.7c-0.2,0.3-0.5,0.7-0.9,1L26,8.9
	c-0.2,0-0.2,0.2-0.2,0.3s0.2,0.3,0.3,0.3s0.3,0,0.7-0.2h0.3C27,9.3,27,9.6,26.8,9.6z"/>
</svg>
