<?xml version="1.0" encoding="utf-8"?>
<!-- Generator: Adobe Illustrator 25.4.1, SVG Export Plug-In . SVG Version: 6.00 Build 0)  -->
<svg version="1.1" id="图层_1" xmlns="http://www.w3.org/2000/svg" xmlns:xlink="http://www.w3.org/1999/xlink" x="0px" y="0px"
	 viewBox="0 0 800 600" style="enable-background:new 0 0 800 600;" xml:space="preserve" width="400">
<style type="text/css">
	.st0{fill:#D4F7FD;}
	.st1{fill:#25D6F2;}
	.st2{fill:#FFDAE0;}
	.st3{fill:#FF4363;}
	.st4{fill:#FFFFFF;}
	.st5{fill:#252C3E;}
	.st6{fill:#FFB4C0;}
	.st7{fill:#A8EFFA;}
</style>
<g>
	<g>
		<g>
			<path class="st0" d="M418,99.1L418,99.1L296.9,99v189.3h157.3V135.2L418,99.1z"/>
		</g>
	</g>
</g>
<g>
	<g>
		<g>
			<path class="st1" d="M471.5,123.4l-36.1-36.1H314.2v189.3h157.3V123.4z"/>
		</g>
	</g>
</g>
<g>
	<g>
		<g>
			<path class="st2" d="M477.6,89L477.6,89l-121.1-0.1v189.4h157.3V125.1L477.6,89z"/>
		</g>
	</g>
</g>
<g>
	<g>
		<g>
			<path class="st3" d="M465.2,99.1L465.2,99.1L344,99v189.3h157.3V135.1L465.2,99.1z"/>
		</g>
	</g>
</g>
<g>
	<g>
		<g>
			<path class="st4" d="M485.6,128.7l-36.1-36.1H328.4v189.3h157.3V128.7z"/>
		</g>
	</g>
</g>
<g>
	<g>
		<g>
			<path class="st5" d="M384.9,216.2l-3.4,4l-2.6,4.2l-1.9,4.5l-1.1,4.8l-0.4,5.2l0.2,1.3l0.7,1.1l1.1,0.7l1.2,0.2l1.3-0.2l1-0.7
				l0.7-1.1l0.2-1.3l0.3-4.2l0.9-3.9l1.5-3.6l2.1-3.4l2.8-3.2l3.2-2.7l3.4-2.1l3.6-1.5l3.8-0.9l4.1-0.3l4.2,0.3l3.9,0.9l3.6,1.5
				l3.4,2.1l3.2,2.7l2.8,3.2l2.1,3.4l1.5,3.6l0.9,3.9l0.3,4.2l0.2,1.3l0.7,1.1l1,0.7l1.3,0.2l1.3-0.2l1.1-0.7l0.7-1.1l0.2-1.3
				l-0.4-5.2l-1.1-4.8l-1.9-4.5l-2.6-4.2l-3.4-4l-4-3.4l-4.2-2.6l-4.5-1.9l-4.8-1.1l-5.3-0.4l-5.2,0.4l-4.8,1.1l-4.5,1.9l-4.2,2.6
				L384.9,216.2z"/>
		</g>
	</g>
</g>
<g>
	<g>
		<g>
			<path class="st5" d="M379.3,163l13.5-13.5l-7-7.1l-13.5,13.6l-13.5-13.6l-7,7.1l13.5,13.5l-13.5,13.6l7,7l13.5-13.5l13.5,13.6
				l7-7L379.3,163z"/>
		</g>
	</g>
</g>
<g>
	<g>
		<g>
			<path class="st5" d="M443.3,170.1l13.5,13.6l7-7L450.3,163l13.5-13.5l-7-7.1l-13.5,13.6l-13.6-13.6l-7,7.1l13.5,13.5l-13.5,13.6
				l7,7L443.3,170.1z"/>
		</g>
	</g>
</g>
<g>
	<g>
		<g>
			<path class="st4" d="M278.6,108.6v10.6h109.3v-10.6H278.6z"/>
		</g>
	</g>
</g>
<g>
	<g>
		<g>
			<path class="st4" d="M346.4,149.8v-10.6h-83.9v10.6H346.4z"/>
		</g>
	</g>
</g>
<g>
	<g>
		<g>
			<path class="st4" d="M537.4,206.8v-10.6h-63.3v10.6H537.4z"/>
		</g>
	</g>
</g>
<g>
	<g>
		<g>
			<path class="st4" d="M288.5,252.3v10.6h63.2v-10.6H288.5z"/>
		</g>
	</g>
</g>
<g>
	<g>
		<g>
			<path class="st3" d="M518.2,173.6V163h-44.1v10.6H518.2z"/>
		</g>
	</g>
</g>
<g>
	<g>
		<g>
			<path class="st3" d="M523.5,247.6v-10.5h-61.9v10.5H523.5z"/>
		</g>
	</g>
</g>
<g>
	<g>
		<g>
			<path class="st1" d="M354.2,212v-10.5h-61.8V212H354.2z"/>
		</g>
	</g>
</g>
<g>
	<g>
		<g>
			<path class="st1" d="M303.6,90.3v10.6h76.6V90.3H303.6z"/>
		</g>
	</g>
</g>
<g>
	<g>
		<g>
			<path class="st1" d="M429.2,262.9v10.5h76.6v-10.5H429.2z"/>
		</g>
	</g>
</g>
<g>
	<g>
		<g>
			<path class="st1" d="M361.2,306.1v-10.5h-46.9v10.5H361.2z"/>
		</g>
	</g>
</g>
<g>
	<g>
		<g>
			<path class="st4" d="M424.6,67.7v10.6h46.9V67.7H424.6z"/>
		</g>
	</g>
</g>
<g>
	<g>
		<g>
			<path class="st4" d="M303.6,183.7v-10.6h-27.4v10.6H303.6z"/>
		</g>
	</g>
</g>
<g>
	<g>
		<g>
			<path class="st4" d="M523.6,117v-10.5h-27.5V117H523.6z"/>
		</g>
	</g>
</g>
<g>
	<g>
		<g>
			<path class="st3" d="M551.1,147.8v-10.6h-27.5v10.6H551.1z"/>
		</g>
	</g>
</g>
<g>
	<g>
		<g>
			<path class="st3" d="M289.9,235.1v-10.6h-27.5v10.6H289.9z"/>
		</g>
	</g>
</g>
<g>
	<g>
		<g>
			<path class="st1" d="M554.2,229.8v-10.5h-27.4v10.5H554.2z"/>
		</g>
	</g>
</g>
<g>
	<g>
		<g>
			<path class="st0" d="M411.4,469V364.9H305V469H411.4 M340.9,378.6H375V455h-34.1V378.6 M236.3,450.6V469h33.9v-18.4h10.5
				l9.7-13.5h-20.2v-72.3h-30.2l-65.9,72.3v13.5H236.3 M195.1,437.2l41.2-45.2v45.2H195.1 M542.1,437.2h-20.2v-72.3h-30.2
				l-65.9,72.3v13.5h62.1V469h33.9v-18.4h10.5L542.1,437.2 M446.7,437.2l41.2-45.2v45.2H446.7z"/>
		</g>
	</g>
</g>
<g>
	<g>
		<g>
			<path class="st2" d="M480,450.8V346.7H373.6v104.1H480 M409.5,360.4h34.1v76.4h-34.1V360.4 M242.9,419v13.5H305v18.4H339v-18.4
				h10.5l9.7-13.5H339v-72.3h-30.2L242.9,419 M263.8,419l41.2-45.2V419H263.8 M590.6,346.7h-30.2L494.5,419v13.5h62.1v18.4h33.9
				v-18.4h10.5l9.7-13.5h-20.2V346.7 M515.4,419l41.2-45.2V419H515.4z"/>
		</g>
	</g>
</g>
<g>
	<g>
		<g>
			<path class="st1" d="M432.5,464.7V360.6H326.1v104.1H432.5 M362,450.7v-76.4h34.1v76.4H362 M195.4,432.9v13.5h62.1v18.4h33.9
				v-18.4H302l9.7-13.5h-20.2v-72.3h-30.2L195.4,432.9 M257.5,387.6v45.2h-41.2L257.5,387.6 M543.1,360.6h-30.2L447,432.9v13.5h62.1
				v18.4h33.9v-18.4h10.5l9.7-13.5h-20.2V360.6 M509.1,387.6v45.2h-41.3L509.1,387.6z"/>
		</g>
	</g>
</g>
<g>
	<g>
		<g>
			<path class="st3" d="M467.4,464.7V360.6H361v104.1H467.4 M396.9,374.3h34.1v76.4h-34.1V374.3 M230.3,432.9v13.5h62.1v18.4h33.9
				v-18.4h10.5l9.7-13.5h-20.2v-72.3h-30.2L230.3,432.9 M292.4,387.6v45.2h-41.2L292.4,387.6 M577.9,360.6h-30.2l-65.9,72.3v13.5
				H544v18.4h33.9v-18.4h10.5l9.7-13.5h-20.2V360.6 M544,387.6v45.2h-41.2L544,387.6z"/>
		</g>
	</g>
</g>
<g>
	<g>
		<g>
			<path class="st3" d="M505.6,503.8h-3.4v16.6c0,1.6-0.2,3-0.5,4.2c-0.3,1.1-0.8,2-1.4,2.7c-0.6,0.6-1.3,1.1-2.1,1.4
				c-0.8,0.3-1.6,0.5-2.6,0.5c-0.9,0-1.8-0.2-2.5-0.5c-0.8-0.3-1.5-0.8-2.1-1.4c-0.6-0.7-1.1-1.6-1.4-2.7c-0.3-1.2-0.5-2.6-0.5-4.2
				v-16.6h-3.5l0.2,19.5c0.1,0.9,0.3,1.8,0.5,2.6c0.3,0.8,0.6,1.4,0.9,2.1c0.3,0.6,0.7,1.2,1.2,1.6c0.6,0.6,1.6,1.3,3.2,2
				c1.1,0.4,2.5,0.6,3.9,0.6c1.5,0,2.8-0.2,4-0.6l1.7-0.8c0.5-0.3,1-0.7,1.5-1.2s0.8-1,1.2-1.6c0.4-0.6,0.7-1.3,0.9-2.1
				c0.3-0.8,0.4-1.6,0.5-2.6l0.2-3.1V503.8 M472.6,504.3c-0.7-0.3-1.5-0.6-2.3-0.7c-0.8-0.2-1.7-0.3-2.5-0.3c-0.9,0-1.7,0.1-2.5,0.3
				c-0.8,0.2-1.6,0.4-2.3,0.7c-0.8,0.3-1.4,0.7-2.1,1.2c-0.6,0.5-1.2,1-1.7,1.6c-0.5,0.6-1,1.3-1.4,2.1c-0.4,0.8-0.8,1.6-1.1,2.5
				c-0.3,0.9-0.5,1.8-0.7,2.9c-0.1,1-0.2,2.1-0.2,3.2c0,1.1,0.1,2.2,0.2,3.2c0.2,1,0.4,1.9,0.7,2.9c0.3,0.9,0.6,1.7,1.1,2.5
				c0.4,0.8,0.9,1.4,1.4,2.1c0.5,0.6,1.1,1.2,1.7,1.7c0.6,0.5,1.3,0.9,2.1,1.2c0.7,0.3,1.5,0.6,2.3,0.7c0.8,0.2,1.7,0.3,2.5,0.3
				s1.7-0.1,2.5-0.3c0.8-0.2,1.5-0.4,2.3-0.7c0.7-0.3,1.4-0.8,2-1.2c0.6-0.5,1.2-1,1.8-1.7c0.5-0.6,1-1.3,1.4-2.1
				c0.4-0.8,0.8-1.6,1.1-2.5c0.3-0.9,0.5-1.9,0.6-2.9c0.2-1,0.2-2.1,0.2-3.2c0-1.1-0.1-2.1-0.2-3.2c-0.1-1-0.3-2-0.6-2.9
				c-0.3-0.9-0.6-1.7-1.1-2.5c-0.4-0.8-0.9-1.4-1.4-2.1c-0.5-0.6-1.1-1.2-1.8-1.6C474,505,473.3,504.6,472.6,504.3 M471.2,507.2
				c1,0.5,1.9,1.3,2.6,2.3c0.7,1,1.3,2.2,1.7,3.6c0.4,1.4,0.6,3,0.6,4.7s-0.2,3.3-0.6,4.7c-0.4,1.4-1,2.6-1.7,3.6
				c-0.7,1-1.6,1.8-2.6,2.3c-1,0.5-2.2,0.8-3.4,0.8c-1.2,0-2.4-0.3-3.4-0.8c-1-0.5-1.9-1.3-2.6-2.3c-0.7-1-1.3-2.2-1.7-3.6
				c-0.4-1.4-0.6-3-0.6-4.7s0.2-3.3,0.6-4.7c0.4-1.4,1-2.6,1.7-3.6c0.7-1,1.6-1.7,2.6-2.3c1-0.5,2.2-0.8,3.4-0.8
				S470.2,506.6,471.2,507.2 M440,516.3v-9.5h12.6v-3h-16.1v28h3.5v-12.5h10.7v-3H440 M402.5,506.8h8.5v25h3.6v-25h8.4v-3h-20.5
				V506.8 M375.4,517.7c0,1.1,0.1,2.2,0.2,3.2c0.2,1,0.4,1.9,0.7,2.9c0.3,0.9,0.6,1.7,1.1,2.5c0.4,0.8,0.9,1.4,1.4,2.1
				c0.5,0.6,1.1,1.2,1.7,1.7c0.6,0.5,1.3,0.9,2.1,1.2c0.7,0.3,1.5,0.6,2.3,0.7c0.8,0.2,1.7,0.3,2.5,0.3s1.7-0.1,2.5-0.3
				c0.8-0.2,1.5-0.4,2.3-0.7s1.4-0.8,2-1.2c0.6-0.5,1.2-1,1.8-1.7c0.5-0.6,1-1.3,1.4-2.1c0.4-0.8,0.8-1.6,1.1-2.5
				c0.3-0.9,0.5-1.9,0.6-2.9c0.2-1,0.2-2.1,0.2-3.2c0-1.1-0.1-2.1-0.2-3.2c-0.1-1-0.3-2-0.6-2.9c-0.3-0.9-0.6-1.7-1.1-2.5
				c-0.4-0.8-0.9-1.4-1.4-2.1c-0.5-0.6-1.1-1.2-1.8-1.6c-0.6-0.5-1.3-0.9-2-1.2c-0.7-0.3-1.5-0.6-2.3-0.7c-0.8-0.2-1.7-0.3-2.5-0.3
				c-0.9,0-1.7,0.1-2.5,0.3c-0.8,0.2-1.6,0.4-2.3,0.7c-0.8,0.3-1.4,0.7-2.1,1.2c-0.6,0.5-1.2,1-1.7,1.6c-0.5,0.6-1,1.3-1.4,2.1
				c-0.4,0.8-0.8,1.6-1.1,2.5c-0.3,0.9-0.5,1.8-0.7,2.9C375.5,515.6,375.4,516.6,375.4,517.7 M379.6,522.4c-0.4-1.4-0.6-3-0.6-4.7
				s0.2-3.3,0.6-4.7c0.4-1.4,1-2.6,1.7-3.6c0.7-1,1.6-1.7,2.6-2.3c1-0.5,2.2-0.8,3.4-0.8s2.4,0.3,3.4,0.8c1,0.5,1.9,1.3,2.6,2.3
				c0.7,1,1.3,2.2,1.7,3.6c0.4,1.4,0.6,3,0.6,4.7s-0.2,3.3-0.6,4.7c-0.4,1.4-1,2.6-1.7,3.6c-0.7,1-1.6,1.8-2.6,2.3
				c-1,0.5-2.2,0.8-3.4,0.8c-1.2,0-2.4-0.3-3.4-0.8c-1-0.5-1.9-1.3-2.6-2.3C380.5,525.1,380,523.9,379.6,522.4 M369.5,503.8h-3.4
				v14.6c0.2,4,0.3,7,0.4,8.8h-0.2l-13.2-23.4h-3.6v28h3.3v-14.6c0-2-0.1-4.9-0.4-8.8h0.2l3,5.8l10.2,17.6h3.6V503.8 M334.9,503.8
				h-16.1v28h16.5v-3h-13v-10.2h10.6v-3h-10.6v-8.8h12.6V503.8 M303.7,503.3c-0.9,0-1.8,0.1-2.7,0.3c-0.9,0.2-1.7,0.4-2.5,0.7
				c-0.8,0.3-1.5,0.7-2.1,1.2c-0.7,0.5-1.3,1-1.9,1.6c-0.6,0.6-1.1,1.4-1.6,2.1c-0.4,0.8-0.8,1.6-1.1,2.5c-0.3,0.9-0.5,1.8-0.7,2.9
				s-0.2,2.1-0.2,3.2s0.1,2.2,0.2,3.2c0.2,1,0.4,1.9,0.7,2.9c0.3,0.9,0.7,1.7,1.1,2.5s0.9,1.4,1.5,2.1c0.6,0.6,1.2,1.2,1.8,1.6
				c0.7,0.5,1.4,0.9,2.1,1.2c0.8,0.3,1.6,0.5,2.4,0.7c0.8,0.2,1.7,0.3,2.7,0.3c0.9,0,1.8-0.1,2.7-0.2c0.8-0.2,1.6-0.4,2.4-0.7
				c0.7-0.3,1.4-0.6,2-1c0.6-0.4,1.1-0.8,1.6-1.3v-11.8H303v2.9h5.9v7.3c-0.5,0.5-1.3,0.9-2.2,1.2c-0.9,0.3-1.8,0.5-2.9,0.5
				l-2.1-0.2c-0.7-0.2-1.3-0.4-1.9-0.6c-1.2-0.5-2.1-1.3-2.9-2.3c-0.8-1-1.4-2.2-1.8-3.6c-0.4-1.4-0.6-3-0.6-4.8
				c0-1.1,0.2-2.7,0.7-4.7c0.4-1.4,1-2.5,1.9-3.5c0.8-1,1.8-1.8,2.9-2.3c1.1-0.5,2.4-0.8,3.8-0.8c1.3,0,2.5,0.3,3.6,0.8
				c0.9,0.4,1.7,1.1,2.5,1.9l1.9-2.3c-0.9-1-2-1.8-3.2-2.4c-0.7-0.3-1.4-0.6-2.2-0.8C305.5,503.4,304.6,503.3,303.7,503.3
				 M260.9,505.6c-0.9-0.6-2-1.1-3.3-1.4c-1.2-0.3-2.6-0.4-4.3-0.4h-8v28h3.5v-11.1h4.6c1.6,0,3-0.2,4.2-0.5
				c1.2-0.4,2.3-0.9,3.2-1.6c0.9-0.7,1.6-1.6,2.1-2.7c0.5-1.1,0.7-2.4,0.7-3.8c0-1-0.2-2.3-0.7-3.9
				C262.5,507.2,261.8,506.3,260.9,505.6 M253,517.8h-4.1v-11.1h4c1.3,0,2.4,0.1,3.2,0.3c1,0.2,1.7,0.5,2.3,0.9
				c0.6,0.4,1.1,1,1.4,1.6c0.3,0.7,0.5,1.5,0.5,2.5c0,1-0.1,1.9-0.4,2.6c-0.3,0.7-0.8,1.3-1.4,1.8s-1.3,0.8-2.2,1.1
				C255.3,517.7,254.2,517.8,253,517.8 M279.1,503.8h-3.9l-9.5,28h3.6l2.7-8.6h10.2l2.7,8.6h3.8L279.1,503.8 M272.8,520.5l1.4-4.3
				c1.2-3.7,2.1-6.9,2.8-9.5h0.2c1.1,4,2,7.1,2.8,9.5l1.3,4.3H272.8 M547.6,503.8h-7v28h7.1c1,0,2-0.1,3-0.2s1.8-0.4,2.6-0.7
				s1.5-0.7,2.2-1.2s1.3-1,1.9-1.6c0.5-0.6,1-1.3,1.4-2c0.4-0.7,0.8-1.5,1-2.4c0.3-0.9,0.5-1.8,0.7-2.8c0.1-1,0.2-2,0.2-3.1
				s-0.1-2.1-0.2-3.2c-0.2-1-0.4-1.9-0.7-2.7c-0.3-0.9-0.6-1.7-1-2.4c-0.4-0.8-0.9-1.4-1.5-2c-0.5-0.6-1.2-1.1-1.9-1.6
				c-0.7-0.5-1.4-0.8-2.3-1.1c-0.8-0.3-1.7-0.5-2.7-0.7C549.7,503.9,548.7,503.8,547.6,503.8 M551.6,507.4c0.6,0.2,1.2,0.5,1.7,0.9
				c0.5,0.4,1,0.8,1.4,1.2c0.8,0.9,1.4,2.1,1.8,3.4c0.4,1.4,0.6,3,0.6,4.7s-0.2,3.3-0.6,4.7c-0.4,1.4-1,2.5-1.8,3.5
				c-0.4,0.5-0.9,0.9-1.4,1.3c-0.5,0.4-1.1,0.7-1.7,0.9c-1.8,0.5-3.2,0.7-4.3,0.7h-3.2v-22.2h3.2C548.4,506.7,549.8,507,551.6,507.4
				 M516.5,517.1c0-2-0.1-4.9-0.4-8.8h0.2l3,5.8l10.2,17.6h3.6v-28h-3.4v14.6c0.2,4,0.3,7,0.4,8.8h-0.2l-13.2-23.4h-3.6v28h3.3
				V517.1z"/>
		</g>
	</g>
</g>
<g>
	<g>
		<g>
			<path class="st1" d="M499.9,503.8h-3.4v16.6c0,1.6-0.2,3-0.5,4.2c-0.3,1.1-0.8,2-1.4,2.7c-0.6,0.6-1.3,1.1-2.1,1.4
				c-0.8,0.3-1.6,0.5-2.6,0.5c-0.9,0-1.8-0.2-2.5-0.5c-0.8-0.3-1.5-0.8-2.1-1.4c-0.6-0.7-1.1-1.6-1.4-2.7c-0.3-1.2-0.5-2.6-0.5-4.2
				v-16.6h-3.5l0.2,19.5c0.1,0.9,0.3,1.8,0.5,2.6c0.3,0.8,0.6,1.4,0.9,2.1c0.3,0.6,0.7,1.2,1.2,1.6c0.6,0.6,1.6,1.3,3.2,2
				c1.1,0.4,2.5,0.6,3.9,0.6c1.5,0,2.8-0.2,4-0.6l1.7-0.8c0.5-0.3,1-0.7,1.5-1.2c0.4-0.5,0.8-1,1.2-1.6s0.7-1.3,0.9-2.1
				c0.3-0.8,0.4-1.6,0.5-2.6l0.2-3.1V503.8 M462,503.3c-0.9,0-1.7,0.1-2.5,0.3c-0.8,0.2-1.6,0.4-2.3,0.7c-0.8,0.3-1.4,0.7-2.1,1.2
				c-0.6,0.5-1.2,1-1.7,1.6c-0.5,0.6-1,1.3-1.4,2.1c-0.4,0.8-0.8,1.6-1.1,2.5c-0.3,0.9-0.5,1.8-0.7,2.9c-0.1,1-0.2,2.1-0.2,3.2
				c0,1.1,0.1,2.2,0.2,3.2c0.2,1,0.4,1.9,0.7,2.9c0.3,0.9,0.6,1.7,1.1,2.5c0.4,0.8,0.9,1.4,1.4,2.1c0.5,0.6,1.1,1.2,1.7,1.7
				c0.6,0.5,1.3,0.9,2.1,1.2c0.7,0.3,1.5,0.6,2.3,0.7c0.8,0.2,1.7,0.3,2.5,0.3c0.9,0,1.7-0.1,2.5-0.3c0.8-0.2,1.5-0.4,2.3-0.7
				s1.4-0.8,2-1.2c0.6-0.5,1.2-1,1.8-1.7c0.5-0.6,1-1.3,1.4-2.1c0.4-0.8,0.8-1.6,1.1-2.5c0.3-0.9,0.5-1.9,0.6-2.9
				c0.2-1,0.2-2.1,0.2-3.2c0-1.1-0.1-2.1-0.2-3.2c-0.1-1-0.3-2-0.6-2.9c-0.3-0.9-0.6-1.7-1.1-2.5c-0.4-0.8-0.9-1.4-1.4-2.1
				c-0.5-0.6-1.1-1.2-1.8-1.6c-0.6-0.5-1.3-0.9-2-1.2c-0.7-0.3-1.5-0.6-2.3-0.7C463.7,503.4,462.9,503.3,462,503.3 M454.3,513
				c0.4-1.4,1-2.6,1.7-3.6c0.7-1,1.6-1.7,2.6-2.3c1-0.5,2.2-0.8,3.4-0.8c1.2,0,2.4,0.3,3.4,0.8c1,0.5,1.9,1.3,2.6,2.3
				c0.7,1,1.3,2.2,1.7,3.6c0.4,1.4,0.6,3,0.6,4.7s-0.2,3.3-0.6,4.7c-0.4,1.4-1,2.6-1.7,3.6c-0.7,1-1.6,1.8-2.6,2.3
				c-1,0.5-2.2,0.8-3.4,0.8c-1.3,0-2.4-0.3-3.4-0.8c-1-0.5-1.9-1.3-2.6-2.3c-0.7-1-1.3-2.2-1.7-3.6c-0.4-1.4-0.6-3-0.6-4.7
				S453.9,514.4,454.3,513 M434.3,516.3v-9.5h12.6v-3h-16.1v28h3.5v-12.5h10.7v-3H434.3 M396.8,506.8h8.5v25h3.6v-25h8.4v-3h-20.5
				V506.8 M379,503.6c-0.8,0.2-1.6,0.4-2.3,0.7c-0.8,0.3-1.4,0.7-2.1,1.2c-0.6,0.5-1.2,1-1.7,1.6c-0.5,0.6-1,1.3-1.4,2.1
				c-0.4,0.8-0.8,1.6-1.1,2.5c-0.3,0.9-0.5,1.8-0.7,2.9c-0.1,1-0.2,2.1-0.2,3.2c0,1.1,0.1,2.2,0.2,3.2c0.2,1,0.4,1.9,0.7,2.9
				c0.3,0.9,0.6,1.7,1.1,2.5c0.4,0.8,0.9,1.4,1.4,2.1c0.5,0.6,1.1,1.2,1.7,1.7c0.6,0.5,1.3,0.9,2.1,1.2c0.7,0.3,1.5,0.6,2.3,0.7
				c0.8,0.2,1.7,0.3,2.5,0.3s1.7-0.1,2.5-0.3c0.8-0.2,1.5-0.4,2.3-0.7s1.4-0.8,2-1.2c0.6-0.5,1.2-1,1.8-1.7c0.5-0.6,1-1.3,1.4-2.1
				c0.4-0.8,0.8-1.6,1.1-2.5c0.3-0.9,0.5-1.9,0.6-2.9c0.2-1,0.2-2.1,0.2-3.2c0-1.1-0.1-2.1-0.2-3.2c-0.1-1-0.3-2-0.6-2.9
				c-0.3-0.9-0.6-1.7-1.1-2.5c-0.4-0.8-0.9-1.4-1.4-2.1c-0.5-0.6-1.1-1.2-1.8-1.6c-0.6-0.5-1.3-0.9-2-1.2c-0.7-0.3-1.5-0.6-2.3-0.7
				c-0.8-0.2-1.7-0.3-2.5-0.3C380.7,503.3,379.8,503.4,379,503.6 M375.5,509.4c0.7-1,1.6-1.7,2.6-2.3c1-0.5,2.2-0.8,3.4-0.8
				s2.4,0.3,3.4,0.8c1,0.5,1.9,1.3,2.6,2.3c0.7,1,1.3,2.2,1.7,3.6c0.4,1.4,0.6,3,0.6,4.7s-0.2,3.3-0.6,4.7c-0.4,1.4-1,2.6-1.7,3.6
				c-0.7,1-1.6,1.8-2.6,2.3c-1,0.5-2.2,0.8-3.4,0.8c-1.2,0-2.4-0.3-3.4-0.8c-1-0.5-1.9-1.3-2.6-2.3c-0.7-1-1.3-2.2-1.7-3.6
				c-0.4-1.4-0.6-3-0.6-4.7s0.2-3.3,0.6-4.7C374.2,511.6,374.8,510.4,375.5,509.4 M316.5,518.6h10.6v-3h-10.6v-8.8h12.6v-3H313v28
				h16.5v-3h-13V518.6 M347.5,503.8h-3.6v28h3.3v-14.6c0-2-0.1-4.9-0.4-8.8h0.2l3,5.8l10.2,17.6h3.6v-28h-3.4v14.6
				c0.2,4,0.3,7,0.4,8.8h-0.2L347.5,503.8 M302.8,504.4c-0.7-0.3-1.4-0.6-2.2-0.8c-0.8-0.2-1.7-0.3-2.7-0.3c-0.9,0-1.8,0.1-2.7,0.3
				c-0.9,0.2-1.7,0.4-2.5,0.7c-0.8,0.3-1.5,0.7-2.1,1.2c-0.7,0.5-1.3,1-1.9,1.6c-0.6,0.6-1.1,1.4-1.6,2.1c-0.4,0.8-0.8,1.6-1.1,2.5
				c-0.3,0.9-0.5,1.8-0.7,2.9s-0.2,2.1-0.2,3.2s0.1,2.2,0.2,3.2c0.2,1,0.4,1.9,0.7,2.9c0.3,0.9,0.7,1.7,1.1,2.5s0.9,1.4,1.5,2.1
				c0.6,0.6,1.2,1.2,1.8,1.6c0.7,0.5,1.4,0.9,2.1,1.2c0.8,0.3,1.6,0.5,2.4,0.7c0.8,0.2,1.7,0.3,2.7,0.3c0.9,0,1.8-0.1,2.7-0.2
				c0.8-0.2,1.6-0.4,2.4-0.7c0.7-0.3,1.4-0.6,2-1c0.6-0.4,1.1-0.8,1.6-1.3v-11.8h-9.1v2.9h5.9v7.3c-0.5,0.5-1.3,0.9-2.2,1.2
				c-0.9,0.3-1.8,0.5-2.9,0.5L296,529c-0.7-0.2-1.3-0.4-1.9-0.6c-1.2-0.5-2.1-1.3-2.9-2.3c-0.8-1-1.4-2.2-1.8-3.6
				c-0.4-1.4-0.6-3-0.6-4.8c0-1.1,0.2-2.7,0.7-4.7c0.4-1.4,1-2.5,1.9-3.5c0.8-1,1.8-1.8,2.9-2.3c1.1-0.5,2.4-0.8,3.8-0.8
				c1.3,0,2.5,0.3,3.6,0.8c0.9,0.4,1.7,1.1,2.5,1.9l1.9-2.3C305,505.8,304,505,302.8,504.4 M273.3,503.8h-3.9l-9.5,28h3.6l2.7-8.6
				h10.2l2.7,8.6h3.8L273.3,503.8 M267.1,520.5l1.4-4.3c1.2-3.7,2.1-6.9,2.8-9.5h0.2c1.1,4,2,7.1,2.8,9.5l1.3,4.3H267.1
				 M251.8,504.2c-1.2-0.3-2.6-0.4-4.3-0.4h-8v28h3.5v-11.1h4.6c1.6,0,3-0.2,4.2-0.5c1.2-0.4,2.3-0.9,3.2-1.6
				c0.9-0.7,1.6-1.6,2.1-2.7c0.5-1.1,0.7-2.4,0.7-3.8c0-1-0.2-2.3-0.7-3.9c-0.5-1-1.2-1.9-2.1-2.5
				C254.2,505,253.1,504.6,251.8,504.2 M250.3,507c1,0.2,1.7,0.5,2.3,0.9c0.6,0.4,1.1,1,1.4,1.6c0.3,0.7,0.5,1.5,0.5,2.5
				c0,1-0.1,1.9-0.4,2.6c-0.3,0.7-0.8,1.3-1.4,1.8c-0.6,0.5-1.3,0.8-2.2,1.1c-0.9,0.2-2,0.4-3.2,0.4h-4.1v-11.1h4
				C248.4,506.7,249.4,506.8,250.3,507 M544.9,504c-0.9-0.2-1.9-0.2-3-0.2h-7v28h7.1c1,0,2-0.1,3-0.2s1.8-0.4,2.6-0.7
				s1.5-0.7,2.2-1.2s1.3-1,1.9-1.6c0.5-0.6,1-1.3,1.4-2c0.4-0.7,0.8-1.5,1-2.4c0.3-0.9,0.5-1.8,0.7-2.8c0.1-1,0.2-2,0.2-3.1
				s-0.1-2.1-0.2-3.2c-0.2-1-0.4-1.9-0.7-2.7c-0.3-0.9-0.6-1.7-1-2.4c-0.4-0.8-0.9-1.4-1.5-2c-0.5-0.6-1.2-1.1-1.9-1.6
				c-0.7-0.5-1.4-0.8-2.3-1.1C546.7,504.4,545.8,504.2,544.9,504 M538.4,506.7h3.2c1.1,0,2.5,0.2,4.3,0.7c0.6,0.2,1.2,0.5,1.7,0.9
				c0.5,0.4,1,0.8,1.4,1.2c0.8,0.9,1.4,2.1,1.8,3.4c0.4,1.4,0.6,3,0.6,4.7s-0.2,3.3-0.6,4.7c-0.4,1.4-1,2.5-1.8,3.5
				c-0.4,0.5-0.9,0.9-1.4,1.3c-0.5,0.4-1.1,0.7-1.7,0.9c-1.8,0.5-3.2,0.7-4.3,0.7h-3.2V506.7 M510.7,517.1c0-2-0.1-4.9-0.4-8.8h0.2
				l3,5.8l10.2,17.6h3.6v-28h-3.4v14.6c0.2,4,0.3,7,0.4,8.8h-0.2L511,503.8h-3.6v28h3.3V517.1z"/>
		</g>
	</g>
</g>
<g>
	<g>
		<g>
			<path class="st4" d="M502.4,503.8H499v16.6c0,1.6-0.2,3-0.5,4.2c-0.3,1.1-0.8,2-1.4,2.7c-0.6,0.6-1.3,1.1-2.1,1.4
				c-0.8,0.3-1.6,0.5-2.6,0.5c-0.9,0-1.8-0.2-2.5-0.5c-0.8-0.3-1.5-0.8-2.1-1.4c-0.6-0.7-1.1-1.6-1.4-2.7c-0.3-1.2-0.5-2.6-0.5-4.2
				v-16.6h-3.5l0.2,19.5c0.1,0.9,0.3,1.8,0.5,2.6c0.3,0.8,0.6,1.4,0.9,2.1c0.3,0.6,0.7,1.2,1.2,1.6c0.6,0.6,1.6,1.3,3.2,2
				c1.1,0.4,2.5,0.6,3.9,0.6c1.5,0,2.8-0.2,4-0.6l1.7-0.8c0.5-0.3,1-0.7,1.5-1.2c0.4-0.5,0.8-1,1.2-1.6c0.4-0.6,0.7-1.3,0.9-2.1
				c0.3-0.8,0.4-1.6,0.5-2.6l0.2-3.1V503.8 M471.4,505.5c-0.6-0.5-1.3-0.9-2-1.2c-0.7-0.3-1.5-0.6-2.3-0.7c-0.8-0.2-1.7-0.3-2.5-0.3
				c-0.9,0-1.7,0.1-2.5,0.3c-0.8,0.2-1.6,0.4-2.3,0.7c-0.8,0.3-1.4,0.7-2.1,1.2c-0.6,0.5-1.2,1-1.7,1.6c-0.5,0.6-1,1.3-1.4,2.1
				c-0.4,0.8-0.8,1.6-1.1,2.5c-0.3,0.9-0.5,1.8-0.7,2.9c-0.1,1-0.2,2.1-0.2,3.2c0,1.1,0.1,2.2,0.2,3.2c0.2,1,0.4,1.9,0.7,2.9
				c0.3,0.9,0.6,1.7,1.1,2.5c0.4,0.8,0.9,1.4,1.4,2.1c0.5,0.6,1.1,1.2,1.7,1.7c0.6,0.5,1.3,0.9,2.1,1.2c0.7,0.3,1.5,0.6,2.3,0.7
				c0.8,0.2,1.7,0.3,2.5,0.3c0.9,0,1.7-0.1,2.5-0.3c0.8-0.2,1.5-0.4,2.3-0.7s1.4-0.8,2-1.2c0.6-0.5,1.2-1,1.8-1.7
				c0.5-0.6,1-1.3,1.4-2.1c0.4-0.8,0.8-1.6,1.1-2.5c0.3-0.9,0.5-1.9,0.6-2.9c0.2-1,0.2-2.1,0.2-3.2c0-1.1-0.1-2.1-0.2-3.2
				c-0.1-1-0.3-2-0.6-2.9c-0.3-0.9-0.6-1.7-1.1-2.5c-0.4-0.8-0.9-1.4-1.4-2.1C472.6,506.5,472,506,471.4,505.5 M456.8,513
				c0.4-1.4,1-2.6,1.7-3.6c0.7-1,1.6-1.7,2.6-2.3c1-0.5,2.2-0.8,3.4-0.8c1.3,0,2.4,0.3,3.4,0.8c1,0.5,1.9,1.3,2.6,2.3
				c0.7,1,1.3,2.2,1.7,3.6c0.4,1.4,0.6,3,0.6,4.7s-0.2,3.3-0.6,4.7c-0.4,1.4-1,2.6-1.7,3.6c-0.7,1-1.6,1.8-2.6,2.3
				c-1,0.5-2.2,0.8-3.4,0.8c-1.2,0-2.4-0.3-3.4-0.8c-1-0.5-1.9-1.3-2.6-2.3c-0.7-1-1.3-2.2-1.7-3.6c-0.4-1.4-0.6-3-0.6-4.7
				S456.4,514.4,456.8,513 M436.8,516.3v-9.5h12.6v-3h-16.1v28h3.5v-12.5h10.7v-3H436.8 M399.3,506.8h8.5v25h3.6v-25h8.4v-3h-20.5
				V506.8 M349.7,517.1c0-2-0.1-4.9-0.4-8.8h0.2l3,5.8l10.2,17.6h3.6v-28h-3.4v14.6c0.2,4,0.3,7,0.4,8.8h-0.2L350,503.8h-3.6v28h3.3
				V517.1 M379.3,504.3c-0.8,0.3-1.4,0.7-2.1,1.2c-0.6,0.5-1.2,1-1.7,1.6c-0.5,0.6-1,1.3-1.4,2.1c-0.4,0.8-0.8,1.6-1.1,2.5
				c-0.3,0.9-0.5,1.8-0.7,2.9c-0.1,1-0.2,2.1-0.2,3.2c0,1.1,0.1,2.2,0.2,3.2c0.2,1,0.4,1.9,0.7,2.9c0.3,0.9,0.6,1.7,1.1,2.5
				c0.4,0.8,0.9,1.4,1.4,2.1c0.5,0.6,1.1,1.2,1.7,1.7c0.6,0.5,1.3,0.9,2.1,1.2c0.7,0.3,1.5,0.6,2.3,0.7c0.8,0.2,1.7,0.3,2.5,0.3
				s1.7-0.1,2.5-0.3c0.8-0.2,1.5-0.4,2.3-0.7s1.4-0.8,2-1.2c0.6-0.5,1.2-1,1.8-1.7c0.5-0.6,1-1.3,1.4-2.1c0.4-0.8,0.8-1.6,1.1-2.5
				c0.3-0.9,0.5-1.9,0.6-2.9c0.2-1,0.2-2.1,0.2-3.2c0-1.1-0.1-2.1-0.2-3.2c-0.1-1-0.3-2-0.6-2.9c-0.3-0.9-0.6-1.7-1.1-2.5
				c-0.4-0.8-0.9-1.4-1.4-2.1c-0.5-0.6-1.1-1.2-1.8-1.6c-0.6-0.5-1.3-0.9-2-1.2c-0.7-0.3-1.5-0.6-2.3-0.7c-0.8-0.2-1.7-0.3-2.5-0.3
				c-0.9,0-1.7,0.1-2.5,0.3C380.7,503.7,380,504,379.3,504.3 M376.3,513c0.4-1.4,1-2.6,1.7-3.6c0.7-1,1.6-1.7,2.6-2.3
				c1-0.5,2.2-0.8,3.4-0.8s2.4,0.3,3.4,0.8c1,0.5,1.9,1.3,2.6,2.3c0.7,1,1.3,2.2,1.7,3.6c0.4,1.4,0.6,3,0.6,4.7s-0.2,3.3-0.6,4.7
				c-0.4,1.4-1,2.6-1.7,3.6c-0.7,1-1.6,1.8-2.6,2.3c-1,0.5-2.2,0.8-3.4,0.8c-1.2,0-2.4-0.3-3.4-0.8c-1-0.5-1.9-1.3-2.6-2.3
				c-0.7-1-1.3-2.2-1.7-3.6c-0.4-1.4-0.6-3-0.6-4.7S375.9,514.4,376.3,513 M331.6,506.8v-3h-16.1v28H332v-3h-13v-10.2h10.6v-3H319
				v-8.8H331.6 M305.3,504.4c-0.7-0.3-1.4-0.6-2.2-0.8c-0.8-0.2-1.7-0.3-2.7-0.3c-0.9,0-1.8,0.1-2.7,0.3c-0.9,0.2-1.7,0.4-2.5,0.7
				c-0.8,0.3-1.5,0.7-2.1,1.2c-0.7,0.5-1.3,1-1.9,1.6c-0.6,0.6-1.1,1.4-1.6,2.1c-0.4,0.8-0.8,1.6-1.1,2.5c-0.3,0.9-0.5,1.8-0.7,2.9
				s-0.2,2.1-0.2,3.2s0.1,2.2,0.2,3.2c0.2,1,0.4,1.9,0.7,2.9c0.3,0.9,0.7,1.7,1.1,2.5s0.9,1.4,1.5,2.1c0.6,0.6,1.2,1.2,1.8,1.6
				c0.7,0.5,1.4,0.9,2.1,1.2c0.8,0.3,1.6,0.5,2.4,0.7c0.8,0.2,1.7,0.3,2.7,0.3c0.9,0,1.8-0.1,2.7-0.2c0.8-0.2,1.6-0.4,2.4-0.7
				c0.7-0.3,1.4-0.6,2-1c0.6-0.4,1.1-0.8,1.6-1.3v-11.8h-9.1v2.9h5.9v7.3c-0.5,0.5-1.3,0.9-2.2,1.2c-0.9,0.3-1.8,0.5-2.9,0.5
				l-2.1-0.2c-0.7-0.2-1.3-0.4-1.9-0.6c-1.2-0.5-2.1-1.3-2.9-2.3c-0.8-1-1.4-2.2-1.8-3.6c-0.4-1.4-0.6-3-0.6-4.8
				c0-1.1,0.2-2.7,0.7-4.7c0.4-1.4,1-2.5,1.9-3.5c0.8-1,1.8-1.8,2.9-2.3c1.1-0.5,2.4-0.8,3.8-0.8c1.3,0,2.5,0.3,3.6,0.8
				c0.9,0.4,1.7,1.1,2.5,1.9l1.9-2.3C307.5,505.8,306.5,505,305.3,504.4 M275.8,503.8h-3.9l-9.5,28h3.6l2.7-8.6h10.2l2.7,8.6h3.8
				L275.8,503.8 M269.6,520.5l1.4-4.3c1.2-3.7,2.1-6.9,2.8-9.5h0.2c1.1,4,2,7.1,2.8,9.5l1.3,4.3H269.6 M250,503.8h-8v28h3.5v-11.1
				h4.6c1.6,0,3-0.2,4.2-0.5c1.2-0.4,2.3-0.9,3.2-1.6c0.9-0.7,1.6-1.6,2.1-2.7c0.5-1.1,0.7-2.4,0.7-3.8c0-1-0.2-2.3-0.7-3.9
				c-0.5-1-1.2-1.9-2.1-2.5c-0.9-0.6-2-1.1-3.3-1.4C253.1,504,251.7,503.8,250,503.8 M249.7,517.8h-4.1v-11.1h4
				c1.3,0,2.4,0.1,3.2,0.3c1,0.2,1.7,0.5,2.3,0.9c0.6,0.4,1.1,1,1.4,1.6c0.3,0.7,0.5,1.5,0.5,2.5c0,1-0.1,1.9-0.4,2.6
				c-0.3,0.7-0.8,1.3-1.4,1.8c-0.6,0.5-1.3,0.8-2.2,1.1C252.1,517.7,251,517.8,249.7,517.8 M547.4,504c-0.9-0.2-1.9-0.2-3-0.2h-7v28
				h7.1c1,0,2-0.1,3-0.2s1.8-0.4,2.6-0.7s1.5-0.7,2.2-1.2s1.3-1,1.9-1.6c0.5-0.6,1-1.3,1.4-2c0.4-0.7,0.8-1.5,1-2.4
				c0.3-0.9,0.5-1.8,0.7-2.8c0.1-1,0.2-2,0.2-3.1s-0.1-2.1-0.2-3.2c-0.2-1-0.4-1.9-0.7-2.7c-0.3-0.9-0.6-1.7-1-2.4
				c-0.4-0.8-0.9-1.4-1.5-2c-0.5-0.6-1.2-1.1-1.9-1.6c-0.7-0.5-1.4-0.8-2.3-1.1C549.2,504.4,548.3,504.2,547.4,504 M551.4,509.6
				c0.8,0.9,1.4,2.1,1.8,3.4c0.4,1.4,0.6,3,0.6,4.7s-0.2,3.3-0.6,4.7c-0.4,1.4-1,2.5-1.8,3.5c-0.4,0.5-0.9,0.9-1.4,1.3
				c-0.5,0.4-1.1,0.7-1.7,0.9c-1.8,0.5-3.2,0.7-4.3,0.7h-3.2v-22.2h3.2c1.1,0,2.5,0.2,4.3,0.7c0.6,0.2,1.2,0.5,1.7,0.9
				C550.5,508.7,551,509.1,551.4,509.6 M513.2,517.1c0-2-0.1-4.9-0.4-8.8h0.2l3,5.8l10.2,17.6h3.6v-28h-3.4v14.6
				c0.2,4,0.3,7,0.4,8.8h-0.2l-13.2-23.4h-3.6v28h3.3V517.1z"/>
		</g>
	</g>
</g>
<g>
	<g>
		<g>
			<path class="st4" d="M448,464.7V360.6H341.6v104.1H448 M377.5,450.7v-76.4h34.1v76.4H377.5 M210.9,432.9v13.5h62.1v18.4h33.9
				v-18.4h10.5l9.7-13.5h-20.2v-72.3h-30.2L210.9,432.9 M272.9,387.6v45.2h-41.2L272.9,387.6 M558.5,360.6h-30.2l-65.9,72.3v13.5
				h62.1v18.4h33.9v-18.4H569l9.7-13.5h-20.2V360.6 M524.5,387.6v45.2h-41.3L524.5,387.6z"/>
		</g>
	</g>
</g>
<g>
	<g>
		<g>
			<path class="st4" d="M229.6,368.5v11h71.2v-11H229.6z"/>
		</g>
	</g>
</g>
<g>
	<g>
		<g>
			<path class="st4" d="M229.6,407.7v11h46.7v-11H229.6z"/>
		</g>
	</g>
</g>
<g>
	<g>
		<g>
			<path class="st4" d="M260,452.3v-11h-46.6v11H260z"/>
		</g>
	</g>
</g>
<g>
	<g>
		<g>
			<path class="st4" d="M603.5,373.9v-11h-46.6v11H603.5z"/>
		</g>
	</g>
</g>
<g>
	<g>
		<g>
			<path class="st4" d="M636.6,418.8h-46.7v11h46.7V418.8z"/>
		</g>
	</g>
</g>
<g>
	<g>
		<g>
			<path class="st4" d="M629.4,482.9v-11h-46.6v11H629.4z"/>
		</g>
	</g>
</g>
<g>
	<g>
		<g>
			<path class="st3" d="M592,398.6v-11h-46.7v11H592z"/>
		</g>
	</g>
</g>
<g>
	<g>
		<g>
			<path class="st3" d="M456.8,370.2v11h46.7v-11H456.8z"/>
		</g>
	</g>
</g>
<g>
	<g>
		<g>
			<path class="st1" d="M239.8,387.6v11h46.6v-11H239.8z"/>
		</g>
	</g>
</g>
<g>
	<g>
		<g>
			<path class="st1" d="M278.9,476.1v11h46.7v-11H278.9z"/>
		</g>
	</g>
</g>
<g>
	<g>
		<g>
			<path class="st1" d="M354.4,387.6v11h46.7v-11H354.4z"/>
		</g>
	</g>
</g>
<g>
	<g>
		<g>
			<path class="st4" d="M104.1,123.4h-60v20.1h60V123.4z"/>
		</g>
	</g>
</g>
<g>
	<g>
		<g>
			<path class="st4" d="M729.1,276.6h-89.5v20.1h89.5V276.6z"/>
		</g>
	</g>
</g>
<g>
	<g>
		<g>
			<path class="st4" d="M134.1,520.8v-20.1H60.8v20.1H134.1z"/>
		</g>
	</g>
</g>
<g>
	<g>
		<g>
			<path class="st3" d="M707.1,212.1v-11.5H656v11.5H707.1z"/>
		</g>
	</g>
</g>
<g>
	<g>
		<g>
			<path class="st6" d="M129.7,243.5v-11.5H78.6v11.5H129.7z"/>
		</g>
	</g>
</g>
<g>
	<g>
		<g>
			<path class="st6" d="M727.8,523v-11.5h-51V523H727.8z"/>
		</g>
	</g>
</g>
<g>
	<g>
		<g>
			<path class="st1" d="M755.9,404.6v-12.1h-53.5v12.1H755.9z"/>
		</g>
	</g>
</g>
<g>
	<g>
		<g>
			<path class="st1" d="M648.2,129.4v-12h-53.5v12H648.2z"/>
		</g>
	</g>
</g>
<g>
	<g>
		<g>
			<path class="st1" d="M65.6,364.2v12.1h53.5v-12.1H65.6z"/>
		</g>
	</g>
</g>
<path class="st7" d="M221.2,179.1v-12h-53.5v12H221.2z"/>
</svg>
