<svg xmlns="http://www.w3.org/2000/svg" viewBox="0 0 256 256"><defs><style>.a{fill:#0a0a32;}.b{fill:#3466fe;}</style></defs><rect class="a" width="256" height="256" rx="58.18"/><path class="b" d="M128.22,221.34c-24.38-.34-45.63-8.6-63.6-25.17a2.15,2.15,0,0,0-2.12-.57A99.92,99.92,0,0,1,37.7,198c-6.15-.29-12.09-1.44-17.29-5-7.48-5.1-10.32-13.49-7.75-22.82,1.63-5.89,4.9-10.9,8.66-15.63a111.19,111.19,0,0,1,13.52-14,2.34,2.34,0,0,0,.89-2.25,90.13,90.13,0,0,1,4-38.83Q51.6,64.09,84.38,46.19a88.44,88.44,0,0,1,37-10.73c26.87-1.72,50.27,6.57,70.22,24.63a2.66,2.66,0,0,0,2.63.77,100.36,100.36,0,0,1,24.19-2.35c5.84.26,11.52,1.25,16.61,4.34,8.24,5,11.54,13.89,8.8,23.5-1.8,6.34-5.4,11.67-9.52,16.7A112,112,0,0,1,221.66,116a2.36,2.36,0,0,0-.9,2.26A88.92,88.92,0,0,1,214.15,164c-12.87,29.55-35.16,48-66.57,55.32a74.07,74.07,0,0,1-8.49,1.42A83.79,83.79,0,0,1,128.22,221.34Zm-69.7-93.07c0,1.25,0,2.5,0,3.74,0,.75.12,1.5.18,2.24a69.73,69.73,0,0,0,12.38,34.13,1.55,1.55,0,0,0,2,.7c10.13-2.92,20-6.43,29.83-10.34a439.23,439.23,0,0,0,51.57-24.66,347.34,347.34,0,0,0,39.55-25.5,1.38,1.38,0,0,0,.59-1.84A69.77,69.77,0,0,0,58.52,128.27ZM197.71,135A470.55,470.55,0,0,1,92,187.83c21.1,12.07,43,14,65.16,3.85C181.24,180.6,194.27,161.06,197.71,135Zm16-43.67a44.16,44.16,0,0,0,6.9-9.24,47.65,47.65,0,0,0-10.87,0c-.67.06-.48.41-.28.76C211,85.47,212.32,88.28,213.7,91.29ZM47.4,174.43c-1.63-3-3.07-5.77-4.34-8.66-.29-.68-.54-.24-.78,0a48.54,48.54,0,0,0-5.9,7.72c-.53.86-.22,1,.6,1.08A49.94,49.94,0,0,0,47.4,174.43Z"/></svg>