<?xml version="1.0" encoding="utf-8"?>
<!-- Generator: Adobe Illustrator 25.4.1, SVG Export Plug-In . SVG Version: 6.00 Build 0)  -->
<svg version="1.1" id="图层_1" xmlns="http://www.w3.org/2000/svg" xmlns:xlink="http://www.w3.org/1999/xlink" x="0px" y="0px"
	 viewBox="0 0 256 256" style="enable-background:new 0 0 256 256;" xml:space="preserve">
<style type="text/css">
	.st0{fill:#FFFFFF;}
</style>
<path class="st0" d="M128.2,221.3c-24.4-0.3-45.6-8.6-63.6-25.2c-0.5-0.6-1.4-0.8-2.1-0.6c-8.1,1.8-16.5,2.6-24.8,2.4
	c-6.1-0.3-12.1-1.4-17.3-5c-7.5-5.1-10.3-13.5-7.8-22.8c1.6-5.9,4.9-10.9,8.7-15.6c4.1-5.1,8.6-9.7,13.5-14c0.7-0.5,1-1.4,0.9-2.2
	c-1.5-13.1-0.2-26.3,4-38.8c7.9-23.6,22.8-41.3,44.6-53.3c11.4-6.3,24-9.9,37-10.7c26.9-1.7,50.3,6.6,70.2,24.6
	c0.7,0.7,1.7,1,2.6,0.8c7.9-1.8,16.1-2.5,24.2-2.3c5.8,0.3,11.5,1.2,16.6,4.3c8.2,5,11.5,13.9,8.8,23.5c-1.8,6.3-5.4,11.7-9.5,16.7
	c-3.9,4.7-8.1,9-12.7,12.9c-0.7,0.5-1,1.4-0.9,2.3c1.9,15.6-0.4,31.3-6.6,45.7c-12.9,29.6-35.2,48-66.6,55.3
	c-2.8,0.6-5.6,1.1-8.5,1.4C135.5,221.2,131.9,221.4,128.2,221.3z M58.5,128.3c0,1.2,0,2.5,0,3.7c0,0.8,0.1,1.5,0.2,2.2
	c1,12.3,5.3,24,12.4,34.1c0.4,0.7,1.3,1,2,0.7c10.1-2.9,20-6.4,29.8-10.3c17.7-7.1,34.9-15.3,51.6-24.7c13.7-7.6,27-16.1,39.6-25.5
	c0.7-0.4,0.9-1.2,0.6-1.8c-11.9-36.6-51.3-56.6-88-44.7C78,71.4,58.6,98.1,58.5,128.3L58.5,128.3z M197.7,135
	c-32.9,22-68.4,39.7-105.7,52.8c21.1,12.1,43,14,65.2,3.9C181.2,180.6,194.3,161.1,197.7,135z M213.7,91.3c2.7-2.8,5-5.9,6.9-9.2
	c-3.6-0.4-7.3-0.4-10.9,0c-0.7,0.1-0.5,0.4-0.3,0.8C211,85.5,212.3,88.3,213.7,91.3L213.7,91.3z M47.4,174.4c-1.6-3-3.1-5.8-4.3-8.7
	c-0.3-0.7-0.5-0.2-0.8,0c-2.2,2.4-4.2,5-5.9,7.7c-0.5,0.9-0.2,1,0.6,1.1C40.4,174.9,43.9,174.8,47.4,174.4z"/>
</svg>
